M48
INCH
T01C0.0150
T02C0.1180
T03C0.0320
T04C0.0250
T05C0.0400
T06C0.0300
T07C0.0690
%
T01
X+002000Y+006250
X+007334Y+014350
X+002650Y+006272
X+004992Y+034499
X+005352Y+037549
X+008501Y+030983
X+003603Y+038989
X+004356Y+042157
X+010781Y+019313
X+009014Y+019497
X+002666Y+019500
X+004500Y+019500
X+006018Y+041170
X+004367Y+040044
X+008780Y+040168
X+003830Y+005712
X+003450Y+008142
X+004847Y+015996
X+003854Y+015515
X+004675Y+015559
X+001503Y+015072
X+003764Y+016130
X+008710Y+014403
X+002166Y+010476
X+002820Y+014143
X+003500Y+006500
X+005000Y+007000
X+008000Y+012500
X+008250Y+011500
X+002000Y+009000
X+009250Y+041300
X+007260Y+005992
X+006250Y+009842
X+005694Y+011979
X+007530Y+011012
X+007620Y+011672
X+006250Y+009342
X+003156Y+009369
X+003294Y+013195
X+008480Y+014102
X+002958Y+012685
X+003950Y+014032
X+005820Y+012997
X+003250Y+014392
X+001450Y+002763
X+006668Y+020543
X+009849Y+027000
X+006568Y+036814
X+006241Y+034363
X+008000Y+041750
X+007250Y+039003
X+008662Y+024500
X+008750Y+038000
X+006980Y+014112
X+006609Y+014192
X+007070Y+013432
X+011250Y+014932
X+006741Y+013117
X+008830Y+014755
X+010091Y+014923
X+009500Y+018500
X+008858Y+015573
X+007587Y+016652
X+000985Y+007977
X+001070Y+010382
X+003604Y+017016
X+006877Y+016832
X+004170Y+012772
X+005911Y+014563
X+001651Y+012694
X+000806Y+012960
X+001361Y+012099
X+004266Y+015464
X+002590Y+013732
X+005904Y+014080
X+008250Y+009342
X+006504Y+015158
X+011492Y+016637
X+007060Y+015142
X+009791Y+019750
X+011250Y+019750
X+011215Y+018208
X+007858Y+016389
X+001461Y+017750
X+005777Y+017541
X+005500Y+016500
X+005117Y+016905
X+001180Y+017003
X+005129Y+016355
X+000810Y+009862
X+001491Y+016483
X+007171Y+016483
X+007390Y+013232
X+006070Y+011796
X+008769Y+008088
X+011589Y+000889
X+013775Y+008098
X+002068Y+002944
X+006294Y+013146
X+009280Y+004895
X+015946Y+031623
X+008688Y+032680
X+015956Y+032268
X+008422Y+033161
X+015967Y+032866
X+008691Y+033613
X+016000Y+033500
X+008351Y+033993
X+000500Y+026328
X+007000Y+025000
X-000716Y+032393
X+001282Y+032190
X+010142Y+032197
X+011321Y+021873
X+012346Y+029791
X+006000Y+040250
X+006500Y+039750
X-000076Y+021746
X+000070Y+024010
X+000490Y+021792
X+000517Y+023498
X-001730Y+014220
X-001730Y+016295
X+005298Y+013553
X+004854Y+004745
X+004948Y+003335
X+006701Y+003783
X+003943Y+013431
X+006250Y+008342
X+006891Y+004895
X+008299Y+002707
X+004160Y+004062
X+007820Y+003360
X+005595Y+004621
T02
X-003309Y+040242
X+015618Y+040272
X-003278Y+006807
X+015628Y+006807
X-001704Y+038106
X+014044Y+038106
X-001704Y+022358
X+014044Y+022358
X+010118Y+029448
X+002244Y+029448
X+002244Y+045196
X+010118Y+045196
X-003268Y+009169
X+015628Y+009169
X+015628Y+014681
X-003268Y+014681
T03
X+005256Y+001934
X+007225Y+001934
T04
X+007220Y+010322
X+007720Y+010322
X+007220Y+009822
X+007720Y+009822
X+007220Y+009322
X+007720Y+009322
X+007220Y+008822
X+007720Y+008822
X+007220Y+008322
X+007720Y+008322
T05
X+000108Y+003108
X+000108Y+004108
X+000108Y+005108
X+000108Y+006108
X+000108Y+007108
X+000108Y+008108
X+000108Y+009108
X+000108Y+010108
X+000108Y+011108
X+000108Y+012108
X+000108Y+013108
X+000108Y+014108
X+000108Y+015108
X+000108Y+016108
X+000108Y+017108
X+000108Y+018108
X+000108Y+019108
X+000108Y+020108
X+012100Y+003108
X+012100Y+004108
X+012100Y+005108
X+012100Y+006108
X+012100Y+007108
X+012100Y+008108
X+012100Y+009108
X+012100Y+010108
X+012100Y+011108
X+012100Y+012108
X+012100Y+013108
X+012100Y+014108
X+012100Y+015108
X+012100Y+016108
X+012100Y+017108
X+012100Y+018108
X+012100Y+019108
X+012100Y+020108
X-003111Y+011414
X-004111Y+011414
X+002666Y+022319
X+003666Y+022319
X+004666Y+022319
X+005666Y+022319
X+006666Y+022319
X+007666Y+022319
X+008666Y+022319
X+009666Y+022319
X+004669Y+026074
X+005669Y+026074
X+006669Y+026074
X+007669Y+026074
X+007669Y+027074
X+006669Y+027074
X+005669Y+027074
X+004669Y+027074
X+010118Y+043224
X+010118Y+042224
X+010118Y+041224
X+010118Y+040224
X+010118Y+039224
X+010118Y+038224
X+010118Y+037224
X+010118Y+036224
X+010118Y+035224
X+010118Y+034224
X+002244Y+043224
X+002244Y+042224
X+002244Y+041224
X+002244Y+040224
X+002244Y+039224
X+002244Y+038224
X+002244Y+037224
X+002244Y+036224
X+002244Y+035224
X+002244Y+034224
X-002883Y+017691
X-002883Y+018691
X+009601Y+001473
X+010601Y+001473
T06
X+002480Y+026653
X+002480Y+025653
T07
X-004798Y+031242
X-003814Y+027305
X-003814Y+031242
X-001845Y+029274
X-004798Y+027305
M30
