M48
INCH
T01C0.0150
T02C0.1180
T03C0.0400
T04C0.0320
T05C0.0300
T06C0.0350
T07C0.1200
T08C0.0600
%
T01
X+006480Y-002240
X+006686Y+001360
X+001803Y-000643
X-001009Y+000115
X+001750Y+000000
X+000250Y-002500
X+003000Y+000000
X+011000Y+003000
X+003500Y-002750
X+003500Y-001750
X+009862Y-003357
X-002000Y+002750
X+009000Y-004000
X+003000Y+000500
X-002750Y-003000
X+002000Y+001750
X+004250Y+000250
X-000250Y-003250
X-002362Y+001848
X-002750Y-000070
X+006000Y+002750
X-000750Y-005250
X+010480Y+004740
X+009080Y+003687
X-003777Y-002705
X-003876Y+001294
X-003666Y+003603
X-000645Y-001690
X-007544Y-003491
X-003990Y+003970
X-001503Y+000698
X+011000Y+004000
X+007784Y+000651
X+009132Y+000658
T02
X-011344Y+006530
X+011883Y+006530
X-011344Y-006855
X+011883Y-006855
T03
X+006710Y+005650
X+006710Y+004650
X+005710Y+005650
X+005710Y+004650
X+004710Y+005650
X+004710Y+004650
X+001500Y+005650
X+001500Y+004650
X+000500Y+005650
X+000500Y+004650
X-000500Y+005650
X-000500Y+004650
T04
X+010719Y-001222
X+010719Y+000745
T05
X-005785Y+003619
X-008226Y+003619
X-008226Y+005588
X-005785Y+005588
T06
X-007406Y+001620
X-006406Y-001879
X-006406Y+001120
X-007406Y-001379
X-007406Y+000620
X-006406Y-000879
X-006406Y+000120
X-007406Y-000379
T07
X-009921Y+002044
X-009921Y-002404
T08
X-011253Y-003203
X-011259Y+002792
M30
