M48
INCH
T01C0.0150
T02C0.1259
T03C0.0250
T04C0.0400
T05C0.0320
T06C0.0600
T07C0.0450
T08C0.0690
T09C0.0300
%
T01
X+037500Y-001250
X+040000Y-002500
X+037500Y-000500
X+048250Y-001000
X+048500Y+000250
X+050500Y+009750
X+050500Y-002500
X+010500Y+005000
X+010500Y+011000
X+023250Y+000250
X+021500Y-003500
X+035750Y+006000
X+031250Y-008000
X+033500Y-009500
X+021250Y-007500
X+027500Y-007000
X+015750Y+005000
X+037500Y+000250
X+033500Y-010250
X+023000Y-001750
X+042000Y+002750
X+048750Y-000750
X+048750Y+005500
X+050000Y-001500
X+036750Y+002500
X+041000Y-014000
X+040500Y-002500
X+040500Y-004000
X+032250Y+010500
X+052750Y-001000
X+042750Y+005500
X+039000Y-002250
X+031000Y+003250
X+032500Y-008750
X+035250Y-007250
X+043750Y-007000
X+036500Y-002500
X+015750Y-007000
X+042000Y+000000
X+037750Y-002000
X+035500Y-005000
X+032250Y-012000
X+035500Y-002750
X+032750Y-009500
X+032750Y-012000
X+033500Y-003750
X+033250Y-005000
X+034000Y-003500
X+034750Y-005000
X+036500Y-005000
X+036250Y-010000
X+030000Y-010000
X+051750Y-001250
X+051000Y+007000
X+052250Y-001000
X+039000Y-000750
X+034500Y-005750
X+040000Y+000250
X+024000Y+001250
X+024500Y+001250
X+006754Y-002999
X+003192Y-000979
X+008428Y+006404
X+006050Y+008063
X+006750Y+005000
X+041614Y-010299
X+054590Y-010089
X+054591Y-006997
X+051000Y-008250
X+053868Y-006370
X+053868Y-007517
X+052244Y-005662
X+049945Y+008274
X+046275Y+009914
X+048504Y+009910
X+052646Y-010745
X+038750Y-009500
X+037750Y-003750
X+050030Y-002230
X+053120Y+000270
X+052000Y-002000
X+052370Y-003104
X+051560Y-003280
X+040000Y+004448
X+048246Y+006250
X+046221Y+008602
X+049409Y+007959
X+046730Y+006930
X+028500Y+004921
X+028500Y+003250
X+049394Y+003360
X+047574Y+003910
X+044640Y+004840
X+043385Y+007003
X+040500Y+006500
X+019750Y+007650
X+019750Y+006000
X+044830Y+012000
X+041490Y+011650
X+050250Y+005500
X+027000Y+006500
X+012250Y+011889
X+012250Y+003250
X+027000Y+003380
X+020518Y-000001
X+021750Y+000000
X+026750Y-001000
X+029250Y-001750
X+030469Y+000122
X+034750Y-002250
X+032410Y+001570
X+028750Y+002750
X+024750Y+003000
X+031000Y+001930
X+034476Y+002283
X+039750Y+005500
X+040490Y+001521
X+039693Y+001575
X+040015Y+000938
X+039500Y-006740
X+029500Y-009750
X+029500Y-008750
X+030250Y-007250
X+034500Y-007250
X+022750Y-003000
X+024420Y-001785
X+024230Y-003166
X+024040Y+000500
X+019342Y+000707
X+012500Y-008500
X+023655Y-005685
X+023659Y-003843
X+034750Y-003750
X+030800Y-002620
X+035520Y+003010
X+029395Y+004892
X+031870Y+001510
X+031500Y+003250
X+029250Y+002000
X+031250Y+001250
X+031000Y+000750
X+028750Y-000250
X+019750Y-002500
X+019755Y-001161
X+028370Y-002380
X+031250Y-002250
X+047000Y+002750
X+024750Y-005000
X+024750Y-000250
X+033000Y+000000
X+033000Y+006500
X+031000Y-003750
X+028350Y-003720
X+022500Y-002000
X+019954Y-000299
X+039433Y-008127
X+039412Y-008981
X+029540Y-013013
X+035750Y-001750
X+036000Y-003500
X+033630Y-012250
X+036500Y-003750
X+038248Y-008556
X+050918Y+009246
X+024310Y+010250
X+015750Y+010500
X+038000Y+004250
X+031500Y+011500
X+027000Y+000750
X+024750Y+000500
X+046010Y+007750
X+045250Y+009500
X+018000Y+004730
X+018002Y+007578
X+023888Y+002835
X+007484Y+001640
X+017954Y+003760
X+028250Y+002460
X+030590Y+002250
X+036000Y-003000
X+043250Y+002500
X+036465Y+000881
X+034816Y+000881
X+031970Y-003410
X+031590Y-003000
X+037121Y-007575
X+032500Y-006750
X+032014Y-000492
X+026490Y+007510
X+033485Y+009977
X+030010Y+007950
X+030250Y+006830
X+031199Y+006480
X+041030Y+003750
X+035870Y+007120
X+025330Y+007230
X+022250Y+007000
X+005287Y-003283
X+044869Y-004670
X+041964Y-003496
X+043873Y-000450
X+044204Y+000525
X+035020Y+003310
X+039000Y-003130
X+040000Y-002000
X+037750Y-002500
X+032646Y-003755
X+033168Y-003434
X+028000Y-001000
X+026250Y-001500
X+023500Y-000750
X+040650Y-008500
X+024410Y-009410
X+024410Y-009409
X+029750Y-007750
X+030750Y-010250
X+027660Y-000470
X+027630Y+000250
X+028620Y-001250
X+028620Y-001800
X+033750Y+004750
X+033687Y-001827
X+030556Y-001294
X+032710Y+002500
X+031250Y+002500
X+028110Y+003000
X+022750Y+004750
X+022750Y+003940
T02
X+056972Y+011481
X+002248Y+011481
X+002248Y-014108
X+056972Y-014108
T03
X+030720Y-013137
X+030720Y-012637
X+031220Y-013137
X+031220Y-012637
X+031720Y-013137
X+031720Y-012637
X+032220Y-013137
X+032220Y-012637
X+032720Y-013137
X+032720Y-012637
T04
X+057321Y+006281
X+057321Y+003139
X+015393Y-012834
X+013425Y-012834
X+048824Y-006189
X+048824Y-005189
X+049824Y-006189
X+049824Y-005189
X+050824Y-006189
X+050824Y-005189
X+037307Y+010598
X+037307Y+009598
X+037307Y+008598
X+037307Y+007598
X+038307Y+007598
X+038307Y+008598
X+038307Y+009598
X+038307Y+010598
X+009133Y+008594
X+009133Y-010696
X+035905Y-010696
X+035905Y+008594
X+018346Y-013125
X+018346Y-012125
X+051885Y-013375
X+051885Y-012375
X+004740Y-011470
X+004740Y-012470
T05
X+056249Y-008788
X+056249Y-006819
X+056249Y-002268
X+056249Y-000299
T06
X+039243Y-010711
X+049473Y-010635
X+046757Y-010635
T07
X+024724Y-012322
X+021574Y-012322
T08
X+000814Y+006646
X+001798Y+002709
X+001798Y+006646
X+003766Y+004677
X+000814Y+002709
X+000814Y-005007
X+001798Y-008944
X+001798Y-005007
X+003766Y-006975
X+000814Y-008944
T09
X+043582Y+001574
X+043582Y+004015
X+045551Y+004015
X+045551Y+001574
X+043582Y-006141
X+043582Y-003700
X+045551Y-003700
X+045551Y-006141
M30
