M48
INCH
T01C0.0150
T02C0.1180
T03C0.0400
T04C0.0300
T05C0.0690
T06C0.0320
T07C0.0250
%
T01
X+000375Y+004093
X+001620Y+004190
X+000058Y+002602
X+005354Y+004130
X+005300Y+002650
X+008504Y+010188
X+004813Y+017135
X+008659Y+018435
X+008000Y+018430
X+002797Y+012240
X+002657Y+017556
X+004849Y+016456
X+005996Y+015904
X+007722Y+011727
X+006380Y+011720
X+007319Y+011413
X+003185Y+006455
X+004512Y+012375
X+003175Y+007352
X+005480Y+013370
X+004754Y+012056
X+004974Y+011604
X+005730Y+012040
X+005880Y+012960
X+008107Y+010135
X+006197Y+010135
X+004718Y+017844
X+005300Y+008656
X+004263Y+009423
X+006771Y+007852
X+005286Y+007658
X+009365Y+008338
X+008231Y+008334
X+000144Y+007387
X-000349Y+011050
X+006460Y+003110
X+006470Y+005660
X+000596Y+006583
X+001226Y+005497
X-000026Y+004565
X+000934Y+007673
X-000990Y+009230
X-001929Y+011862
X+001073Y+009968
X-001520Y+009586
X+001088Y+010443
X-001500Y+010262
X+000286Y+005521
X+000990Y+007020
X-001666Y+006294
X+006066Y+006363
X+001560Y+004750
X+002660Y+004750
X-004814Y+005731
X-002960Y+005430
X+007879Y+004116
X+009376Y+004950
X+009384Y+002575
X+005669Y+021335
X+008798Y+015900
X+009683Y+016215
X+009715Y+018093
X+010822Y+017523
X+010975Y+016849
X+011582Y+017342
X+011058Y+018623
X+013263Y+017591
X+013255Y+018228
X+010091Y+011634
X+010707Y+019831
X+015265Y+015484
X+015772Y+015501
X+015775Y+012062
X+002448Y+016513
X+013804Y+026174
X+010750Y+022360
X+011320Y+032060
X+014862Y+027609
X+016680Y+026990
X+013810Y+029290
X+015080Y+029290
X+010563Y+005754
X+012275Y+000293
X+013235Y+003664
X+013450Y+019596
X+013377Y+020180
X+013196Y+008111
X-000307Y+007887
X-003637Y+009005
X-001480Y+015340
X-003800Y+017210
X+008102Y+029924
X+011610Y+023864
X+011810Y+026280
X+011810Y+027224
X+007151Y+034421
X+003763Y+033090
X+004011Y+030538
X+011798Y+036280
X+017766Y+033869
X+012817Y+031769
X+003780Y+007860
X+004461Y+013367
X+002436Y+009268
X+003195Y+018278
X+002551Y+010063
X+003860Y+009640
X+002874Y+011692
X+000727Y+012300
X+001748Y+010303
X+007273Y+030450
X+008149Y+030470
X+006811Y+030787
X+013450Y+015870
X+006874Y+006335
X+008222Y+005942
X+007733Y+005664
X+009261Y+013723
X+009454Y+011808
X-003250Y+021145
X+001202Y+013307
X+001825Y+013818
X+009041Y+005747
X+011971Y+007127
X+008750Y+011380
X+006838Y+018327
X+012457Y+005604
X+008110Y+019980
X+010516Y+021620
X+012790Y+020590
X+015448Y+036248
X+016466Y+033718
X+014627Y+016713
X+017335Y+021271
X+012010Y+011034
X+010275Y+019849
X+010476Y+021056
X+013006Y+019832
X+007625Y+019966
X+005740Y+003130
X+004920Y+007980
X+006777Y+004224
X+005349Y+010236
X+013392Y+015298
X+012701Y+034643
X+011039Y+037368
X+012007Y+043543
X+000681Y+023872
X+007040Y+019900
X+004208Y+019667
X+001133Y+029561
X-001242Y+025631
X+009005Y+020266
X-002270Y+014980
X-001525Y+011318
X+002038Y+018990
X-000412Y+018325
X-000167Y+018933
X-000157Y+017440
X+000196Y+021535
X-000551Y+017262
X-000227Y+016657
X-001047Y+016009
X-000839Y+016385
X+007412Y+018307
X+007393Y+017574
X+008511Y+014893
X+007128Y+003047
X+005933Y+017851
X+010005Y+015301
X+007217Y+015673
X+004653Y+015325
X+002677Y+018346
X+010423Y+012946
T02
X-003112Y+040242
X+015194Y+040242
X-003112Y+007171
X+015194Y+007171
X-001704Y+038106
X+014044Y+038106
X-001704Y+022358
X+014044Y+022358
X+010228Y+025136
X+002354Y+025136
X+002354Y+040884
X+010228Y+040884
T03
X-003188Y+034507
X-004188Y+034507
X+002666Y+022319
X+003666Y+022319
X+004666Y+022319
X+005666Y+022319
X+006666Y+022319
X+007666Y+022319
X+008666Y+022319
X+009666Y+022319
X+004811Y+031598
X+005811Y+031598
X+006811Y+031598
X+007811Y+031598
X+007811Y+032598
X+006811Y+032598
X+005811Y+032598
X+004811Y+032598
X+002356Y+038907
X+002356Y+037907
X+002356Y+036907
X+002356Y+035907
X+002356Y+034907
X+002356Y+033907
X+002356Y+032907
X+002356Y+031907
X+002356Y+030907
X+002356Y+029907
X+010230Y+038907
X+010230Y+037907
X+010230Y+036907
X+010230Y+035907
X+010230Y+034907
X+010230Y+033907
X+010230Y+032907
X+010230Y+031907
X+010230Y+030907
X+010230Y+029907
X+000055Y+034507
X-000944Y+034507
X-002940Y+012224
X-003940Y+012224
X-002940Y+013224
X-003940Y+013224
X-002940Y+014224
X-003940Y+014224
X-000118Y+024354
X-000118Y+025354
T04
X+001023Y+027952
X+001023Y+026952
T05
X-004798Y+031242
X-003814Y+027305
X-003814Y+031242
X-001845Y+029274
X-004798Y+027305
T06
X+005245Y+001716
X+007214Y+001716
X+000105Y+001716
X+002074Y+001716
T07
X-000992Y+014874
X-000492Y+014874
X-000992Y+014374
X-000492Y+014374
X-000992Y+013874
X-000492Y+013874
X-000992Y+013374
X-000492Y+013374
X-000992Y+012874
X-000492Y+012874
X+004645Y+035433
X+005145Y+035433
X+005645Y+035433
X+006145Y+035433
X+006645Y+035433
X+007145Y+035433
X+007645Y+035433
X+008145Y+035433
M30
