M48
INCH
T01C0.0150
T02C0.1181
T03C0.0600
T04C0.0400
T05C0.0350
T06C0.0300
T07C0.0500
T08C0.1120
T09C0.0320
T10C0.1160
%
T01
X-027465Y-011515
X-025000Y-016750
X-026250Y-021750
X-017500Y-004000
X-014250Y-004000
X-016000Y-009750
X-022500Y-010750
X-020500Y-004250
X+019250Y-012750
X+019250Y-014250
X+019500Y+006750
X+016750Y+006750
X-023250Y-012500
X-023500Y-008500
X-023250Y-016750
X-021750Y-011750
X-036250Y+006500
X-017750Y-019250
X-024500Y-016250
X-018000Y-014250
X-027750Y-017000
X-019000Y-013500
X-024750Y-011750
X-027500Y-013000
X-000250Y+024250
X+042000Y+024500
X+042000Y+020500
X+018000Y+024250
X-003500Y+025750
X+033500Y+024250
X+033500Y+023000
X+026750Y+023000
X+018500Y+024250
X+021750Y+023750
X+011250Y+023750
X-009750Y-012500
X+006750Y-013750
X+000500Y-004250
X+009250Y-007750
X-005250Y-011000
X-010250Y-011000
X+017500Y-007000
X-009750Y-010000
X-005250Y-007500
X-004250Y-008750
X-009000Y-013250
X-002750Y-012500
X+003750Y-012500
X-025500Y-002250
X-024250Y+012000
X-024250Y+008500
X-019010Y+009970
X+011000Y+027500
X+005750Y+027500
X+010750Y+027000
X+004250Y+027000
X+004250Y+026500
X+010750Y+026000
X+020250Y+022750
X-005750Y+041500
X+029500Y+040250
X+024000Y+025250
X+012500Y+041000
X+024250Y+027000
X+010500Y+041250
X+008000Y+041250
X+019000Y+027250
X+018500Y+028750
X+023750Y+031000
X+023750Y+028500
X+017500Y+031500
X+021000Y+031500
X+018000Y+029000
X+016250Y+041000
X+013500Y+041000
X+027500Y+030250
X+021750Y+028500
X+021750Y+029750
X+030750Y+030250
X+030250Y+018000
X+028500Y+018500
X+023500Y+024250
X+026750Y+023500
X+028500Y+024250
X+028500Y+025250
X+035500Y+026000
X+041000Y+029500
X+041500Y+026500
X+041500Y+027000
X+041500Y+028500
X+036750Y+027500
X+042000Y+028000
X+042000Y+028500
X+027500Y+036250
X+043500Y+025750
X+047250Y+027750
X+045500Y+027250
X+046000Y+014500
X-002000Y+028000
X+028500Y+035500
X+012250Y+035250
X+000250Y+028000
X+004000Y+027750
X+003250Y+031750
X+031750Y+034500
X-003400Y+003870
X-003830Y+003830
X-005670Y+005510
X-005900Y+004070
X-005925Y+003631
X-005936Y+003225
X-006343Y+003292
X-006414Y+002845
X-003900Y+003370
X-004230Y+003060
X-004650Y+003050
X-004900Y+002720
X-004961Y+004022
X-005156Y+003665
X-005175Y+003272
X-013750Y+020750
X+018000Y+029500
X-005342Y+002942
X+036000Y-012250
X+040750Y-012250
X+036250Y-011500
X+028000Y-025750
X+040500Y-011000
X+036000Y-011000
X+039250Y-002250
X+004500Y-024750
X+001500Y-025500
X+045500Y+004000
X+035750Y-009500
X+041000Y-009500
X+041000Y-005000
X+038250Y-002750
X+037250Y-005000
X+004500Y-023000
X+026250Y-025250
X+014250Y-024500
X+003250Y-026250
X+027500Y-007750
X+022250Y-009500
X+012750Y-025750
X+046250Y-009250
X+039500Y-009500
X-018250Y-025250
X+011750Y-025750
X+019750Y-009500
X+017000Y-007000
X+028250Y-010250
X+027500Y-010250
X+021250Y-011500
X+033500Y-011500
X+019750Y-012500
X+018750Y-024000
X+016250Y-019750
X+006250Y-021000
X+027000Y-014250
X+030500Y-014000
X-001250Y-020500
X+005000Y-023750
X+036500Y-019500
X+027000Y-011500
X+022250Y-011000
X+017750Y-010000
X+027000Y+005250
X+027250Y-009250
X+029500Y+003250
X+010500Y+003250
X+003500Y-010000
X+008750Y-010000
X+001000Y-011000
X+008250Y-010500
X+002750Y-011500
X+008750Y-011500
X+037500Y-012750
X+044750Y-010250
X+000500Y-013000
X+004250Y-012250
X+001000Y-011500
X+007250Y-009500
X+000000Y-010500
X+005500Y-010500
X+000000Y-010000
X+001000Y-008500
X+047750Y-011000
X+047750Y+005250
X+000500Y-021000
X-011250Y-021000
X+037250Y-025500
X+034750Y-020250
X+034250Y-012500
X+043250Y-010000
X+043250Y-006500
X-031000Y+007500
X-031000Y+000000
X+010500Y+016000
X+009250Y+004250
X+041750Y-006500
X+010000Y-016000
X-002750Y-017000
X+001000Y-004250
X+001250Y-003000
X+019500Y-007000
X-031250Y+027750
X+001000Y-017000
X+009250Y+000250
X+046000Y-006000
X+040250Y-015250
X-005000Y+024000
X+036500Y+024000
X-006500Y+025000
X+010250Y+025250
X+010250Y+026000
X-026000Y-011750
X-020000Y-012750
X+001500Y+013000
X+007500Y-013750
X+003000Y+009750
X-020000Y-011500
X+007250Y+010250
X+011500Y-000250
X-013000Y-015500
X+012000Y-014000
X-026000Y-010750
X-002170Y+010640
X-000200Y+010640
X-003465Y+005521
X-003450Y+007230
X-000267Y+007666
X-009201Y+008085
X-001283Y+003522
X-003310Y+015760
X-006500Y+024000
X+043500Y+024000
X+010500Y+029250
X+040250Y-016750
X-021500Y-013500
X+004000Y+008500
X+000516Y+009700
X+005250Y+005250
X-006125Y+000314
X-005553Y+000296
X-007612Y+009013
X-015140Y+001608
X-012287Y+011657
X-000842Y+004440
X-003156Y+007769
X-007507Y+005544
X-007500Y+001360
X-019500Y-003750
X-001433Y+014790
X-001433Y+009111
X-007410Y+008180
X-006802Y+009681
X-007110Y+008540
X-002444Y+014601
X-001790Y+009380
X-001647Y+005908
X-001660Y+005240
X-014542Y+001537
X-011715Y+011665
X-000500Y+004590
X-001857Y+007875
X-007930Y+005540
X-007930Y+001100
X+011500Y-014500
X-018500Y-015750
X-008750Y+025500
X+017750Y-013000
X-010250Y-016500
X-035000Y-007000
X-001500Y+022750
X-024250Y+000500
X-025000Y+013250
X-035000Y+013250
X+037250Y+026000
X-009250Y-012000
X+016250Y+023500
X-035750Y+010250
X-035000Y-005250
X+016250Y+021500
X-007230Y+005928
X-006855Y+007729
X-013254Y+007834
X-000979Y+012050
X-002883Y+002494
X+003060Y+002520
X+005500Y-014250
X-003000Y-014000
X+000000Y+022750
X+007000Y+012420
X-003969Y+014293
X-003176Y+009754
X-027000Y-001750
X-020986Y+014730
X-027000Y-000750
X-009297Y+006632
X-011127Y+005823
X-020260Y+005820
X-019840Y+006140
X-020730Y+000950
X-025000Y-001750
X-020470Y-001690
X-020445Y+001327
X-021309Y-003336
X-024250Y-002250
X-018060Y-004080
X-018050Y-006980
X+017993Y-010647
X+018165Y-010992
X-019500Y-006500
X-012225Y-008340
X-012753Y-009854
X-008500Y-013250
X+009250Y-004500
X+004000Y-004500
X-002933Y-007000
X-004305Y-007010
X-009250Y-012500
X-000394Y-011263
X+005080Y-007832
X+005460Y-007444
X+005543Y-005999
X+002500Y-006000
X-010750Y-013250
X+005385Y-005573
X+000157Y-006686
X+003379Y-006672
X+010670Y-008920
X+009250Y-003250
X+009750Y-007000
X+029543Y-013382
X+031340Y-013370
X+029143Y-008670
X+025750Y-003860
X+035860Y-017750
X+033000Y-012250
X+033180Y-015250
X+034750Y-015250
X+034750Y-018250
X+038750Y-018250
X+036530Y-015610
X+042214Y-003162
X+042850Y-005195
X+044500Y-006000
X-011750Y-019500
X+049505Y-013023
X+012000Y-019250
X+041500Y-019250
X+046250Y-010500
X+042500Y-013750
X+042500Y-019000
X+049007Y-020879
X+013250Y-016250
X+042779Y+037385
X+043500Y+029500
X+042540Y+032500
X+025207Y+030498
X-000250Y+029000
X-000640Y+032750
X+004000Y+028250
X-000331Y+031744
X+001750Y+028250
X+001750Y+029000
X+011000Y+028750
X+005750Y+029210
X+003285Y+032530
X+004000Y+035000
X+009710Y+033960
X+009290Y+033980
X+008750Y+035470
X+006651Y+036650
X+003900Y+035750
X+008796Y+033237
X+007500Y+030320
X-026000Y-004500
X-026390Y+015530
X-024778Y+016202
X-025500Y+016750
X-024651Y+018771
X-026874Y+018688
X-009750Y+021250
X+007000Y+013960
X-025490Y+019500
X-022500Y+019500
X-012750Y+019500
X-022750Y-018860
X-022250Y-020080
X-020500Y-014250
X+013250Y+039750
X+001750Y+026500
X+011500Y+041000
X+023500Y+039250
X+021500Y+031500
X+045165Y+037369
X+045000Y+040500
X+027750Y+040250
X+038330Y+040630
X+036762Y+040672
X+036500Y+025250
X+032000Y+022250
X+029000Y+022250
X+027000Y+027500
X+028500Y+002750
X+026000Y+002750
X+017000Y+005250
X+028000Y+004750
X+046500Y-000500
X+046500Y+006750
X+046500Y+008500
X+030079Y+007256
X+028280Y+007430
X+016000Y-007000
X+018574Y+004258
X+016500Y+003750
X+021000Y+003750
X+023750Y-010000
X+022750Y-012500
X+022750Y-014250
X+025750Y-014250
X+028500Y-013250
X+025250Y-013750
X+018250Y-014250
X+024000Y-014750
X+025250Y-014750
X+028750Y-010000
X+026500Y-006500
X+026500Y-005250
X+022500Y-005250
X+022500Y-007000
X+033500Y-012000
X+033500Y-017750
X+015250Y-016470
X-012250Y-019000
X+009498Y-019021
X+010500Y-019750
X-010750Y-018000
X+011000Y-017570
X-005000Y-024500
X-013750Y-024750
X+018753Y-016164
X+011250Y-015750
X-000750Y-024500
X+000250Y-024500
X+008600Y-009000
X+003000Y-009500
X+005000Y-009000
X+007750Y+002000
X+003000Y-006000
X-010750Y-013750
X-012140Y-010840
X-021060Y+000610
X-021957Y-003200
X-035500Y-012500
X-036000Y-010750
X-034000Y-012000
X-033500Y-010000
X-021430Y+000000
X-022652Y-003331
X-037140Y+003610
X-035944Y+001478
X-024500Y+012500
X-024500Y+002750
X-030000Y+005000
X-030000Y+014250
X-036610Y+007620
X-036050Y+003530
X-029000Y+017500
X-021750Y+013500
X-020055Y+014413
X-023354Y+018262
X-037500Y+020750
X-035500Y-002000
X+001750Y+025500
X+000750Y+026000
X+003170Y+033070
X-008250Y+033500
X-001000Y+031250
X+005324Y+030175
X-004500Y+022000
X-004500Y+027000
X-004500Y+021500
X-000240Y+026420
X-003494Y+026510
X+010250Y+024000
X+010250Y+022250
X+010920Y+022755
X+009500Y+024250
X+025500Y+024750
X-002500Y+029500
X+007750Y+022700
X+020000Y+021000
X+020000Y+020000
X+021750Y+020000
X+014250Y+029500
X+014250Y+030650
X+018500Y+031000
X+011890Y+031610
X+011866Y+033109
X+010410Y+033100
X+021891Y+027265
X+028750Y+029750
X+025250Y+029750
X+027181Y+025657
X+028000Y+022250
X+028000Y+021370
X+037250Y+029500
X+041875Y+030625
X+042000Y+029000
X+045000Y+028250
X+043180Y+031420
X+039330Y+031530
X+039330Y+028920
X+036750Y+026500
X+041000Y+026500
X+036500Y+023000
X+042000Y+027500
X-006750Y+027000
X+006250Y+019750
X+039500Y+019250
X+039360Y+024250
X+039965Y+026034
X+039703Y+021777
X+035498Y+021314
X+037000Y+024750
X+037000Y+021500
X+045087Y+020757
X+038000Y+022430
X+038080Y+018070
X+046505Y+018215
X+046857Y+019096
X+043184Y+021226
X+023000Y+019670
X+023080Y+016830
X+023750Y+022750
X+025000Y+016750
X+024500Y+023750
X+033500Y-010250
X+036086Y-004919
X+033607Y-005118
X+033365Y-007797
X+041750Y-005500
X+031750Y-005670
X+031750Y-007500
X+025750Y-006750
X+040000Y-009000
X+040000Y-011750
X+037750Y-009500
X+038000Y-003250
X+038750Y-002750
X+036180Y-009960
X+033250Y-001500
X+033250Y-007000
X+036750Y-013250
X+037105Y-011750
X+038160Y-014010
X+034000Y-011500
X+014250Y-017000
X+028250Y-017250
X+023250Y-018250
X+029500Y-018250
X+027750Y-015000
X+032500Y-010750
X+032500Y-014500
X+029500Y-014500
X+044437Y-020892
X+048408Y-022407
X+048250Y-009500
X+036020Y-020670
X+033903Y-020808
X+032294Y-020827
X+037250Y-014250
X+040250Y-013500
X+019750Y-019500
X+019750Y-013250
X+028950Y-021571
X+028740Y-019290
X+038044Y-019467
X+039750Y-015250
X+039650Y-021250
X+040500Y-018250
X+039984Y-019250
X+021750Y-011500
X+021750Y-021250
X+035490Y-021664
X+036790Y-021390
X+036000Y-020250
X+040750Y-020250
X+027500Y-025750
X+018500Y-018250
X+009000Y-020000
X+026750Y-025750
X+013750Y-023750
X+014250Y-015250
X+014250Y-016250
X+028750Y-016750
X+027100Y-017750
X+032500Y-018250
X+025143Y-016410
X+011000Y-019750
X+041250Y-021020
X+038750Y-017250
X+048490Y-021945
X+042700Y-020767
X+032250Y-021953
X+041636Y-021491
X+042118Y-022105
X+023250Y-022250
X+023250Y-024250
X+023750Y-023750
X+017250Y-022530
X+017250Y-017750
X+014750Y-017750
X+014250Y-011000
X+010500Y-020500
X+019500Y-020500
X+019286Y-011070
X+019380Y-011940
X+014250Y-010250
X+031000Y-011000
X+031500Y-010000
X+032250Y-001000
X+022630Y+001500
X+007750Y-001250
X+005750Y-009000
X+007250Y-012000
X+010433Y-006610
X+008905Y-006600
X+008750Y+002750
X+012250Y-012750
X+010750Y-012750
X+007250Y-012750
X+012250Y+002920
X+011000Y+003750
X+010750Y-011750
X+014500Y-009500
X+042620Y+002000
X+039110Y+004120
X+030750Y-008000
X+035750Y-008500
X+035750Y-003470
X-004900Y-006860
X-006888Y-012187
X+013750Y-002750
X+013750Y-009250
X+014500Y-002594
X+027644Y-002616
X+030437Y-002631
X+029250Y-006500
X+030645Y-001921
X+040500Y-009000
X+012420Y+004750
X+024500Y+004750
X+033510Y-001000
X+036750Y-002000
X+033250Y-008500
X+034202Y-001082
X+030750Y+028500
X+032000Y+027500
X+032500Y+017610
X+031773Y+016867
X+037495Y+018000
X+035500Y+028000
X+047250Y+028750
X+041083Y+021612
X+041250Y+025000
X+044000Y+023000
X+044017Y+020397
X+020500Y+020880
X+019500Y+023250
X+034000Y+025500
X+032500Y+027500
X+032500Y+030500
X+014750Y+033750
X+034000Y+030250
X+033000Y+030500
X+013170Y+034130
X+032730Y+033750
X+041891Y+033512
X+038250Y+033390
X+036500Y+029000
X+014250Y+033750
X+038490Y+033870
X+037837Y+034078
X+036537Y+033748
X+041140Y+013250
X+048348Y+035935
X+036720Y+034420
X+031250Y+029500
X+031250Y+035000
X+036910Y+035000
X+030750Y+026500
X+033500Y+026500
X+033500Y+028750
X+033500Y+029750
X+034778Y+034196
X+035900Y+033790
X+034261Y+033795
X+027250Y+040250
X+044000Y+026750
X+023440Y+037510
X+013750Y+033750
X+013250Y+026750
X+020250Y+025500
X+020250Y+026500
X+019500Y+028560
X+019500Y+037500
X+024250Y+030250
X+020750Y+030250
X+020000Y+030000
X+025280Y+028750
X+028750Y+028000
X+023750Y+027500
X+028500Y+026000
X+023250Y+025750
X+028000Y+026500
X+023370Y+026510
X+028500Y+027000
X+025000Y+026500
X+022285Y+024965
X+022319Y+030679
X+013250Y+024750
X+001647Y+035391
X+003383Y+035475
X+007750Y+026000
X-026000Y-008000
X-001616Y+007099
X+018272Y+026936
X+022031Y+027646
X+023194Y+027644
X-000660Y+012942
X+003000Y+013500
X+013250Y-015250
X+001000Y+016500
X+012750Y+033250
X+005250Y+028750
X+016250Y+034500
X+019500Y+024000
X+024000Y+023250
X+019750Y+026000
X-003000Y+029000
X-012000Y+029000
X-012000Y+030000
X-000250Y+028500
X-000970Y+030750
X+000250Y+035750
X+000250Y+025500
X+010000Y+018750
X+003520Y+022330
X-006657Y+028598
X+002250Y+020500
X+004250Y+020750
X+007000Y+021250
X+007500Y+019750
X+016500Y+019750
X+018000Y+018000
X+025750Y+018000
X+019626Y+026868
X+019174Y+028175
X+016250Y+030250
X+019500Y+011000
X+015500Y+025500
X+025500Y+013750
X+017850Y+013750
X+015000Y+025250
X+015000Y+027000
X+015750Y+028250
X+014000Y+016360
X+012590Y+026890
X+026072Y+013500
X+013250Y+016680
X+014750Y+028500
X+016805Y+014250
X+027575Y+013500
X+013250Y+027750
X+014500Y+024750
X+014500Y+016370
X+026750Y+013500
X+020450Y+012710
X+031570Y+012830
X+028570Y+012492
X+016230Y+010710
X+014504Y+011015
X+013355Y+007599
X+018095Y+018845
X+011250Y+018250
X+028500Y+018000
X+029500Y+023500
X+014750Y+033000
X+001130Y+032230
X+007000Y+041000
X-012500Y+035726
X+029250Y+025000
X+029250Y+031750
X+009500Y+032000
X+010060Y+034750
X-007750Y+036090
X-007750Y+031250
X+010230Y+035250
X-006000Y+036750
X-006960Y+037350
X+000250Y+037250
X-008640Y+036244
X-008736Y+038224
X-008500Y+040500
X-006530Y+040790
X-012144Y+040981
X-009444Y+037806
X+000500Y+038500
X-015020Y-022410
X+002000Y-025500
X-013210Y-021000
X+017680Y-017430
X-021830Y-019620
X-014500Y-015500
X-021080Y-021970
X-021080Y-019130
X-021750Y-018000
X-025750Y-016500
X-019750Y-023000
X-016250Y-018750
X-028500Y-016250
X-029570Y-015250
X-026500Y-007500
X-016500Y-007750
X-020750Y-003750
X-023750Y-014000
X-011250Y-004000
X-011000Y+000250
X-016750Y+006350
X-024750Y-022250
X-010540Y-003960
X-021500Y-012750
X-016422Y-003760
X-016435Y-007140
X-019615Y-007355
X-022750Y-014000
X-007769Y-003953
X-010053Y-004306
X-006543Y-003995
X-002500Y-002220
X+002500Y-007500
X+010500Y-005250
X-017000Y-011000
X-017000Y-003750
X-014890Y-004100
X+025000Y-009500
X+031000Y-015500
X+027750Y-012000
X+027000Y-010500
X+028250Y-012000
X+037500Y-016750
X+037500Y-021630
X+039830Y-021650
X+039849Y-004535
X+039830Y-008340
X+031302Y-003150
X+025500Y+002750
X-025500Y+014500
X-021153Y+016373
X-027330Y+018000
X-027310Y+011540
X-027840Y+001750
X-033910Y+007140
X-033440Y-002723
X-024383Y+003634
X-027923Y+003634
X-028431Y+002376
X-028462Y+007518
X-028745Y-003458
X-028013Y+014231
X+012000Y+010250
X+018000Y+024750
X+017000Y+019750
X+005750Y+019250
X-008250Y+029000
X-003000Y+028000
X+006500Y+021370
X-003500Y+024500
X+007000Y+020750
X+018000Y+020500
X-004000Y+027000
X-004000Y+021500
X-002000Y+027500
X+002750Y+023250
X-002016Y+018914
X-011500Y+020000
X-029000Y+018500
X-029587Y+023492
X+007320Y+007987
X-001000Y-002750
X+009750Y-002750
X+006750Y+009750
X-004250Y-015000
X-003750Y-012750
X-002500Y-006500
X+007000Y-003500
X+006370Y+007760
X-008000Y-006750
X+004000Y+009000
X+004000Y+015660
X-008750Y+024000
X+004391Y+000795
X-001897Y+003037
X+002500Y-004750
X-000250Y-004750
X+021500Y-006810
X+023000Y-007000
X+018635Y-008424
X+016930Y-006570
X+020145Y-006645
X+022250Y+003750
X+032615Y+003875
X+018520Y-006312
X-002250Y-015250
X+002320Y-015130
X+014377Y-013072
X+012750Y-001250
X+002250Y-014750
X+012750Y-012430
X+007500Y-006000
X+019270Y-008205
X+014110Y-006395
X+014110Y-005220
X+017500Y-005750
X+020218Y-005267
X+021388Y-004533
X+034322Y-004124
X+034313Y-007754
X+022255Y-008750
X+024740Y-004570
X+031750Y-004500
X+023755Y-002939
X+023500Y-007500
X+018297Y-008955
X-001250Y-013250
X+011000Y-013143
X+015322Y-009924
X+015310Y-006093
X+031250Y-004250
X+031250Y-008000
X+027250Y-015500
X+037250Y-014750
X+038250Y-016750
X+041000Y-010000
X+042000Y-020000
X+042500Y-012000
X+042500Y-011000
X+044500Y-002750
X+041000Y-001500
X+042500Y-009750
X+035500Y-016250
X+044106Y-014444
X+043000Y-011000
X+029750Y-015000
X+021500Y-005250
X+038250Y-004500
X+038250Y-007000
X+007500Y-008250
X+008250Y-000750
X+027250Y-016330
X+025750Y-016330
X+025750Y-015250
X+017250Y-013750
X+015750Y+034880
X+032847Y+035511
X+039500Y+033000
X+016250Y+033000
X+014000Y+025500
X+036000Y+029500
X+035500Y+032000
X+013250Y+032000
X+003430Y+033997
X-013000Y+034000
X+019000Y+040250
X+040000Y+010000
X+050000Y+037000
X+043920Y+037000
X+036204Y+036602
X+046250Y+009500
X+040500Y+036250
X+040320Y+029250
X+037270Y+031110
X+045078Y+023515
X+043000Y+023500
X+036500Y+027000
X+018000Y+032500
X+007999Y+030015
X+006871Y+029805
X-011000Y+029500
X+003472Y+034491
X-001500Y+034500
X-001500Y+038540
X+012250Y+030250
X+009750Y+029660
X+009010Y+029900
X+011389Y+030326
X+009982Y+030659
X+020500Y+036250
X+008000Y+036500
X+030242Y+036250
X+011500Y+034750
X+007250Y+036600
X+024540Y+035830
X+022300Y+036270
X+008905Y+036500
X+027983Y+036879
X+011250Y+024750
X+011750Y+016500
X-007750Y+021000
X-007750Y+028000
X+005500Y+025000
X+004820Y+021103
X+005773Y+021120
X+007348Y+023292
X+004008Y+023286
X-001750Y+028500
X+007500Y+023750
X+044895Y-014004
X+040660Y-025000
X+036000Y-010500
X+040553Y-020785
X+030413Y-020864
X+032500Y-019500
X+028440Y-002939
X+011500Y-011250
X+011500Y-002250
X+027220Y-002250
X+031430Y-001980
X+027750Y-009250
X+025410Y-019282
X+026620Y-019290
X-007250Y-015000
X-007250Y-018500
X+013750Y-017750
X+015500Y+005750
X+044250Y-013500
X+042500Y-009250
X+019250Y-010000
X+028500Y-025250
X+021250Y-018250
X+018250Y-024500
X+000250Y-022500
X+000500Y-026250
X+000500Y-024000
X+026750Y+018500
X+013250Y+018500
X+013250Y+023290
X+049000Y-012500
X+048750Y-011000
X+026500Y+003750
X+045000Y+003500
X+019000Y-005220
X+019995Y+007251
X+021570Y+007230
X+027004Y-006370
X+003000Y+001750
X-011468Y-017025
X-009050Y-017060
X-009050Y-004350
X-027448Y-005172
X-027500Y+009000
X+006750Y+003000
X+024000Y+002250
X+025590Y-001840
X+006250Y+000500
X-001000Y-012000
X+027426Y-007012
X+026871Y-001536
X+007750Y+002500
X+006250Y-006000
X-010250Y+028500
X+011250Y+014250
X+029250Y+024250
X+028000Y+018000
X+015000Y+018000
X+015000Y+024250
X+027680Y+025500
X+030750Y+017250
X+032000Y+028250
X+028250Y+030750
X+033274Y+019673
X+031362Y+019675
X+031500Y+028500
X-029850Y-005250
X-030500Y+000500
X-027830Y+000500
X-027776Y-005433
X-004000Y-004750
X-008250Y-004750
X-030500Y-004000
X-030500Y-006500
X-007000Y-006500
X-005250Y-006500
X-033250Y+022250
X-033250Y+007750
X-011500Y+025250
X+048675Y+037409
X-027000Y-012000
X-036500Y-013000
X-027750Y-009250
X-024250Y-009250
X-026750Y-019230
X-024500Y-015250
X-023000Y-008250
X-013000Y-007250
X-009750Y-004750
X-016496Y-014140
X-015750Y-014750
X-016838Y-018272
X+025750Y+023500
X+034250Y-016820
X+034250Y-014750
X+017750Y-015750
X+008500Y+021500
X+004750Y+017750
X-015760Y+002590
X-013403Y+011653
X-012817Y+011647
X-016150Y+001593
X-019104Y+001775
X+006250Y+001000
X+005250Y+009500
X-028630Y+011000
X-031000Y+016000
X-036720Y+005000
X-036000Y-003000
X-025130Y+035876
X-023684Y+035897
X-032725Y+030335
X-026157Y+036254
X+001000Y+016910
X-012250Y+019000
X-017660Y+011320
X-017250Y+014500
X+001500Y+014000
X+004500Y+014000
X+004500Y+015550
X-006500Y+021750
X-033747Y+022462
X-034534Y+010431
X-027750Y-007000
X-028250Y+024750
X-012723Y+024121
X-027040Y+033624
X-025665Y+033566
X-030780Y+030310
T02
X-033302Y-017555
X+006146Y-017555
X+045516Y-017555
X+045516Y+033232
X-033263Y+033153
X+006146Y+033232
X+021540Y+038730
X+046540Y+038730
X+046360Y-023250
X+021360Y-023250
X+002609Y-023371
X+015720Y-023360
X+016240Y+038821
X+003130Y+038810
T03
X-036187Y+039714
X-034187Y+039714
X-022106Y+039346
X-026846Y+039346
X-036561Y+028710
X-034561Y+028710
X-018230Y+025430
X-018306Y+035659
X-018306Y+032943
T04
X-022484Y-000979
X-023484Y-000979
X-022484Y+000020
X-023484Y+000020
X-022484Y+001020
X-023484Y+001020
X-022484Y+002020
X-023484Y+002020
X-022484Y+003020
X-023484Y+003020
X-022484Y+004020
X-023484Y+004020
X-022484Y+005020
X-023484Y+005020
X-022484Y+006020
X-023484Y+006020
X-022484Y+007020
X-023484Y+007020
X-022484Y+008020
X-023484Y+008020
X-022484Y+009020
X-023484Y+009020
X-022484Y+010020
X-023484Y+010020
X-022484Y+011020
X-023484Y+011020
X-022484Y+012020
X-023484Y+012020
X-022484Y+013020
X-023484Y+013020
X-022484Y+014020
X-023484Y+014020
X-022484Y+015020
X-023484Y+015020
X-022484Y+016020
X-023484Y+016020
X-019531Y-000948
X-018531Y-000948
X-017531Y-000948
X-016531Y-000948
X-015531Y-000948
X-014531Y-000948
X-013531Y-000948
X-012531Y-000948
X-010840Y+007040
X-011840Y+007040
X-010840Y+008040
X-011840Y+008040
X-010840Y+009040
X-011840Y+009040
X-010558Y-000954
X-009558Y-000954
X-008558Y-000954
X-007558Y-000954
X-006558Y-000954
X-005558Y-000954
X-004558Y-000954
X-003558Y-000954
X-001993Y-000951
X-000993Y-000951
X+000006Y-000951
X+001006Y-000951
X+002006Y-000951
X+003006Y-000951
X+004006Y-000951
X+005006Y-000951
X-005566Y+017962
X-006566Y+017962
X-007566Y+017962
X-008566Y+017962
X-009566Y+017962
X-010566Y+017962
X-011566Y+017962
X-012566Y+017962
X+001410Y+017966
X+000410Y+017966
X-000590Y+017966
X-001590Y+017966
X-002590Y+017966
X-003590Y+017966
X-014503Y+017962
X-015503Y+017962
X-016503Y+017962
X-017503Y+017962
X-018503Y+017962
X-019503Y+017962
X-020503Y+017962
X-021503Y+017962
X-032620Y+012540
X-032620Y+011540
X-032620Y+010540
X-032620Y+009540
X-032620Y+008540
X-032620Y+007540
X-032620Y+006540
X-032620Y+005540
X-032620Y+004540
X-032620Y+003540
X-032620Y+002540
X-032620Y+001540
X-032620Y+000540
X-032620Y-000460
X-032620Y-001460
X-032620Y-002460
X-032620Y-003460
X-032620Y-004460
X-032620Y-005460
X-032620Y-006460
X-031620Y+012540
X-031620Y+011540
X-031620Y+010540
X-031620Y+009540
X-031620Y+008540
X-031620Y+007540
X-031620Y+006540
X-031620Y+005540
X-031620Y+004540
X-031620Y+003540
X-031620Y+002540
X-031620Y+001540
X-031620Y+000540
X-031620Y-000460
X-031620Y-001460
X-031620Y-002460
X-031620Y-003460
X-031620Y-004460
X-031620Y-005460
X-031620Y-006460
X-036793Y+015290
X-035793Y+015290
X-034793Y+015290
X-031569Y+040580
X-029767Y+040590
X-037201Y-023271
X-036201Y-023271
X-003390Y-023580
X-002390Y-023580
X-001390Y-023580
X+021575Y+015100
X+021575Y+016100
X+022575Y+015100
X+022575Y+016100
X+023575Y+015100
X+023575Y+016100
X+024575Y+015100
X+024575Y+016100
X+025575Y+015100
X+025575Y+016100
X+026575Y+015100
X+026575Y+016100
X+027575Y+015100
X+027575Y+016100
X+028575Y+015100
X+028575Y+016100
X+029575Y+015100
X+029575Y+016100
X+030575Y+015100
X+030575Y+016100
X+031575Y+015100
X+031575Y+016100
X+032575Y+015100
X+032575Y+016100
X+033575Y+015100
X+033575Y+016100
X+034575Y+015100
X+034575Y+016100
X+035575Y+015100
X+035575Y+016100
X+036575Y+015100
X+036575Y+016100
X+037575Y+015100
X+037575Y+016100
X+038575Y+015100
X+038575Y+016100
X+039575Y+015100
X+039575Y+016100
X+040575Y+015100
X+040575Y+016100
X+041575Y+015100
X+041575Y+016100
X+042575Y+015100
X+042575Y+016100
X+043575Y+015100
X+043575Y+016100
X+044575Y+015100
X+044575Y+016100
X+045575Y+015100
X+045575Y+016100
X+045615Y+000930
X+045615Y-000070
X+044615Y+000930
X+044615Y-000070
X+043615Y+000930
X+043615Y-000070
X+042615Y+000930
X+042615Y-000070
X+041615Y+000930
X+041615Y-000070
X+040615Y+000930
X+040615Y-000070
X+039615Y+000930
X+039615Y-000070
X+038615Y+000930
X+038615Y-000070
X+037615Y+000930
X+037615Y-000070
X+036615Y+000930
X+036615Y-000070
X+035615Y+000930
X+035615Y-000070
X+034615Y+000930
X+034615Y-000070
X+033615Y+000930
X+033615Y-000070
X+032615Y+000930
X+032615Y-000070
X+031615Y+000930
X+031615Y-000070
X+030615Y+000930
X+030615Y-000070
X+029615Y+000930
X+029615Y-000070
X+028615Y+000930
X+028615Y-000070
X+027615Y+000930
X+027615Y-000070
X+026615Y+000930
X+026615Y-000070
X+025615Y+000930
X+025615Y-000070
X+024615Y+000930
X+024615Y-000070
X+023615Y+000930
X+023615Y-000070
X+022615Y+000930
X+022615Y-000070
X+021615Y+000930
X+021615Y-000070
X+010550Y+012851
X+010550Y+014820
X+013502Y+012851
X+013502Y+014820
X+012557Y+012851
X+012597Y+014820
X+014487Y+012851
X+014487Y+014820
X+010569Y+009741
X+010569Y+011709
X+013522Y+009741
X+013522Y+011709
X+012577Y+009741
X+012616Y+011709
X+014506Y+009741
X+014506Y+011709
X+010580Y+006612
X+010580Y+008581
X+013532Y+006612
X+013532Y+008581
X+012587Y+006612
X+012627Y+008581
X+014517Y+006612
X+014517Y+008581
X-036798Y+017230
X-036798Y+024671
X-031286Y+017230
X-031286Y+024671
X+021570Y+011490
X+021570Y+010490
X+022570Y+011490
X+022570Y+010490
X+023570Y+011490
X+023570Y+010490
X+024570Y+011490
X+024570Y+010490
X+025570Y+011490
X+025570Y+010490
X+026570Y+011490
X+026570Y+010490
X+027570Y+011490
X+027570Y+010490
X+028570Y+011490
X+028570Y+010490
X+029570Y+011490
X+029570Y+010490
X+030570Y+011490
X+030570Y+010490
X+031570Y+011490
X+031570Y+010490
X+032570Y+011490
X+032570Y+010490
X+033570Y+011490
X+033570Y+010490
X+034570Y+011490
X+034570Y+010490
X+035570Y+011490
X+035570Y+010490
X+036570Y+011490
X+036570Y+010490
X+037570Y+011490
X+037570Y+010490
X+045620Y+004750
X+045620Y+005750
X+044620Y+004750
X+044620Y+005750
X+043620Y+004750
X+043620Y+005750
X+042620Y+004750
X+042620Y+005750
X+041620Y+004750
X+041620Y+005750
X+040620Y+004750
X+040620Y+005750
X+039620Y+004750
X+039620Y+005750
X+038620Y+004750
X+038620Y+005750
X+037620Y+004750
X+037620Y+005750
X+036620Y+004750
X+036620Y+005750
X+035620Y+004750
X+035620Y+005750
X+034620Y+004750
X+034620Y+005750
X+033620Y+004750
X+033620Y+005750
X+032620Y+004750
X+032620Y+005750
X+031620Y+004750
X+031620Y+005750
X+030620Y+004750
X+030620Y+005750
X+029620Y+004750
X+029620Y+005750
T05
X-024968Y+037492
X-023984Y+037492
X-023984Y+038476
X-024968Y+038476
X-009810Y-023230
X-009810Y-024230
X-010810Y-023230
X-010810Y-024230
X-011810Y-023230
X-011810Y-024230
X-012810Y-023230
X-012810Y-024230
X-013810Y-023230
X-013810Y-024230
X-014810Y-023230
X-014810Y-024230
X-015810Y-023230
X-015810Y-024230
X-016810Y-023230
X-016810Y-024230
X-017810Y-023230
X-017810Y-024230
X-018810Y-023230
X-018810Y-024230
X-013960Y+038990
X-013960Y+039990
X-012960Y+038990
X-012960Y+039990
X-011960Y+038990
X-011960Y+039990
X-010960Y+038990
X-010960Y+039990
X-009960Y+038990
X-009960Y+039990
X-008960Y+038990
X-008960Y+039990
X-007960Y+038990
X-007960Y+039990
X-006960Y+038990
X-006960Y+039990
X-005960Y+038990
X-005960Y+039990
X-004960Y+038990
X-004960Y+039990
T06
X-000120Y+014200
X-000120Y+012200
X-028390Y-011110
X-028390Y-013110
X+024260Y+038230
X+025350Y+038230
X+026430Y+038230
X+027520Y+038230
X+028610Y+038230
X+029690Y+038230
X+030780Y+038230
X+031870Y+038230
X+032950Y+038230
X+034040Y+038230
X+035130Y+038230
X+036210Y+038230
X+037300Y+038230
X+038390Y+038230
X+039470Y+038230
X+040560Y+038230
X+041650Y+038230
X+042730Y+038230
X+043820Y+038230
X+024800Y+039230
X+025890Y+039230
X+026970Y+039230
X+028060Y+039230
X+029150Y+039230
X+030230Y+039230
X+031320Y+039230
X+032410Y+039230
X+033490Y+039230
X+034580Y+039230
X+035670Y+039230
X+036750Y+039230
X+037840Y+039230
X+038930Y+039230
X+040010Y+039230
X+041100Y+039230
X+042190Y+039230
X+043270Y+039230
X+043640Y-022750
X+042550Y-022750
X+041470Y-022750
X+040380Y-022750
X+039290Y-022750
X+038210Y-022750
X+037120Y-022750
X+036030Y-022750
X+034950Y-022750
X+033860Y-022750
X+032770Y-022750
X+031690Y-022750
X+030600Y-022750
X+029510Y-022750
X+028430Y-022750
X+027340Y-022750
X+026250Y-022750
X+025170Y-022750
X+024080Y-022750
X+043100Y-023750
X+042010Y-023750
X+040930Y-023750
X+039840Y-023750
X+038750Y-023750
X+037670Y-023750
X+036580Y-023750
X+035490Y-023750
X+034410Y-023750
X+033320Y-023750
X+032230Y-023750
X+031150Y-023750
X+030060Y-023750
X+028970Y-023750
X+027890Y-023750
X+026800Y-023750
X+025710Y-023750
X+024630Y-023750
X-036850Y-006480
X-036850Y-004480
X-036850Y-005480
T07
X-032051Y+039684
X-029256Y+039684
T08
X+017980Y+015600
X+049170Y+015600
X+049210Y+000430
X+018020Y+000430
X+017975Y+010990
X+041165Y+010990
X+049215Y+005250
X+026025Y+005250
T09
X+012649Y-022371
X+011747Y-022371
X+010845Y-022371
X+009944Y-022371
X+009042Y-022371
X+008141Y-022371
X+007239Y-022371
X+006338Y-022371
X+005436Y-022371
X+013099Y-023371
X+012198Y-023371
X+011296Y-023371
X+010395Y-023371
X+009493Y-023371
X+008592Y-023371
X+007690Y-023371
X+006788Y-023371
X+005887Y-023371
X+012670Y-024367
X+011769Y-024367
X+010867Y-024367
X+009966Y-024367
X+009064Y-024367
X+008162Y-024367
X+007261Y-024367
X+006359Y-024367
X+006200Y+037821
X+007102Y+037821
X+008004Y+037821
X+008905Y+037821
X+009807Y+037821
X+010708Y+037821
X+011610Y+037821
X+012511Y+037821
X+013413Y+037821
X+005750Y+038821
X+006651Y+038821
X+007553Y+038821
X+008454Y+038821
X+009356Y+038821
X+010257Y+038821
X+011159Y+038821
X+012061Y+038821
X+012962Y+038821
X+006179Y+039817
X+007080Y+039817
X+007982Y+039817
X+008883Y+039817
X+009785Y+039817
X+010687Y+039817
X+011588Y+039817
X+012490Y+039817
T10
X-007485Y-023940
X-021135Y-023940
X-016285Y+039700
X-002635Y+039700
M30
